<?xml version="1.0" encoding="UTF-8"?>
<!DOCTYPE svg PUBLIC "-//W3C//DTD SVG 1.1//EN" "http://www.w3.org/Graphics/SVG/1.1/DTD/svg11.dtd">
<!-- Creator: CorelDRAW 2017 -->
<svg xmlns="http://www.w3.org/2000/svg" xml:space="preserve" width="41px" height="36px" version="1.1" style="shape-rendering:geometricPrecision; text-rendering:geometricPrecision; image-rendering:optimizeQuality; fill-rule:evenodd; clip-rule:evenodd"
viewBox="0 0 41 36"
 xmlns:xlink="http://www.w3.org/1999/xlink">
 <defs>
  <style type="text/css">
   <![CDATA[
    .fil0 {fill:#35272A}
   ]]>
  </style>
 </defs>
 <g id="Слой_x0020_1">
  <metadata id="CorelCorpID_0Corel-Layer"/>
  <path class="fil0" d="M14.324 27.639c0,-6.956 8,-4.09 8,0 0,4.558 -8,5.762 -8,0zm27 8.999l-23.973 0c-4.399,-0.517 -8.123,-1.704 -10.818,-4.209 -3.414,-3.175 -5.713,-5.794 -6.209,-11.535l0 -4.39c2.102,-23.845 39.859,-19.429 35.824,4.883 -1.089,6.559 -3.958,7.971 -6.824,12.251l12 0 0 3zm-36 -18c0,-5.329 8,-5.329 8,0 0,5.33 -8,5.33 -8,0zm18 -1l0 -1.999c11.964,-2.865 7.79,6.999 4,6.999 -4.843,0 -5.567,-3.939 -4,-5zm-5 -4c-3.672,0 -4,-0.327 -4,-3.999 0,-5.763 8,-4.559 8,0 0,2.34 -1.659,3.999 -4,3.999z"/>
 </g>
</svg>
