<?xml version="1.0" encoding="UTF-8"?>
<!DOCTYPE svg PUBLIC "-//W3C//DTD SVG 1.1//EN" "http://www.w3.org/Graphics/SVG/1.1/DTD/svg11.dtd">
<!-- Creator: CorelDRAW 2017 -->
<svg xmlns="http://www.w3.org/2000/svg" xml:space="preserve" width="76px" height="76px" version="1.1" style="shape-rendering:geometricPrecision; text-rendering:geometricPrecision; image-rendering:optimizeQuality; fill-rule:evenodd; clip-rule:evenodd"
viewBox="0 0 76 76"
 xmlns:xlink="http://www.w3.org/1999/xlink">
 <defs>
  <style type="text/css">
   <![CDATA[
    .fil0 {fill:#241E20}
   ]]>
  </style>
 </defs>
 <g id="Слой_x0020_1">
  <metadata id="CorelCorpID_0Corel-Layer"/>
  <g id="_2165806660832">
   <path class="fil0" d="M64.629 39.802c-0.332,0 -0.369,-0.031 -0.597,-0.183 -0.291,-0.194 -0.048,-0.034 -0.203,-0.188l-0.584 -0.587c-2.641,-2.397 -2.463,-2.123 0.322,-4.918l0.416 -0.364c1,-0.737 1.315,0.081 2.436,1.199 2.316,2.312 1.854,1.724 -0.753,4.387 -0.309,0.316 -0.401,0.654 -1.037,0.654zm-8.461 -8.457c0,-0.724 0.966,-1.42 1.4,-1.854 1.02,-1.019 1.704,-2.111 2.749,-0.862 0.218,0.261 0.19,0.19 0.404,0.377 0.281,0.246 1.825,1.718 1.825,2.079 0,0.769 0.106,0.479 -0.4,1.031 -0.464,0.507 -2.309,2.352 -2.594,2.352 -1.099,0 -1.823,-1.162 -2.814,-2.131 -0.314,-0.308 -0.57,-0.418 -0.57,-0.992zm-2.082 -2.081c-0.696,0 -2.109,-1.79 -2.505,-2.18 -1.275,-1.256 -0.425,-1.722 0.715,-2.862 1.899,-1.898 1.824,-1.756 3.579,0 0.446,0.447 1.415,1.112 1.416,1.789 0,0.634 -0.985,1.358 -1.415,1.789 -0.361,0.36 -1.259,1.464 -1.79,1.464zm-8.46 -8.588c0,-0.468 2.478,-3.075 3.123,-3.073 0.614,0.002 1.556,1.086 2.165,1.69 1.539,1.523 1.53,1.398 -0.244,3.172 -1.944,1.943 -1.722,1.988 -3.645,0.065 -0.392,-0.392 -1.399,-1.223 -1.399,-1.854zm-5.207 -5.074c0,-0.96 0.363,-0.948 1.335,-1.919 1.353,-1.353 1.493,-1.883 2.741,-0.724 0.045,0.041 0.2,0.178 0.206,0.184l0.193 0.198c1.552,1.678 2.487,1.859 1.203,3.123l-1.578 1.545c-1.127,1.057 -1.296,0.72 -2.7,-0.683 -0.319,-0.318 -1.4,-1.282 -1.4,-1.724zm-5.466 0c0,9.037 2.224,16.52 5.636,24.551 0.216,0.509 0.372,0.987 0.563,1.519 2.602,7.277 3.604,15.179 0.849,22.61 -0.565,1.525 -1.2,2.844 -2.026,4.221 -0.269,0.449 -0.68,0.79 -0.727,1.354 0.428,-0.115 1.158,-0.944 1.679,-1.445l13.663 -13.794c0.284,-0.313 0.272,-0.18 0.567,-0.475 0.296,-0.296 0.16,-0.285 0.473,-0.567l9.129 -9.09c0.261,-0.342 0.212,-0.257 0.517,-0.524l5.647 -5.675c0.988,-0.848 0.509,-0.793 1.125,-0.957 -0.155,-0.579 -3.704,-3.897 -4.198,-4.391l-12.951 -12.946c-1.463,-1.463 -2.831,-2.83 -4.295,-4.293l-3.712 -3.706c-0.253,-0.264 -0.312,-0.424 -0.531,-0.64 -0.298,-0.294 -0.23,-0.108 -0.552,-0.489l-5.569 -5.622c-0.699,-0.646 -1.858,-2.199 -2.684,-2.391 -1.543,2.914 -2.603,9.295 -2.603,12.75z"/>
   <path class="fil0" d="M26.753 60.75c0,-0.568 0.269,-0.681 0.566,-0.996 0.295,-0.312 0.47,-0.496 0.768,-0.794 1.139,-1.136 1.638,-1.991 2.765,-0.747l1.054 1.028c0.019,0.019 0.047,0.046 0.066,0.064 1.651,1.579 1.358,1.606 -0.741,3.709l-0.272 0.248c-1.259,1.169 -1.394,0.624 -2.807,-0.788 -0.764,-0.765 -1.399,-1.137 -1.399,-1.724zm-5.337 -5.205c0,-0.716 2.538,-3.252 3.254,-3.252 0.47,0 3.124,2.67 3.124,3.252 0,0.468 -2.477,3.074 -3.124,3.073 -0.796,0 -1.588,-1.347 -2.514,-2.121 -0.256,-0.214 -0.74,-0.543 -0.74,-0.952zm-2.082 -8.587c0.569,0 3.124,2.452 3.124,3.253 0,0.714 -2.41,3.122 -3.124,3.122 -0.328,0 -0.375,-0.034 -0.616,-0.164 -0.524,-0.284 -0.062,0.018 -0.409,-0.373 -2.387,-2.689 -3.123,-2.017 -0.765,-4.374 0.361,-0.36 1.259,-1.464 1.79,-1.464zm-5.336 1.171c-0.603,0 -0.847,-0.521 -1.66,-1.334 -2.151,-2.149 -2.093,-1.633 0.967,-4.693 0.494,-0.493 0.455,-0.348 1.343,-0.348 0.163,0.607 0.27,0.347 0.68,0.751l1.722 1.792c0.712,0.983 -0.578,1.802 -1.217,2.414 -0.02,0.019 -0.047,0.045 -0.066,0.064l-0.126 0.134c-0.515,0.556 -0.968,1.22 -1.643,1.22zm-8.461 -8.327c0,-0.376 0.106,-0.614 0.309,-0.862l0.654 -0.648c0.934,-0.95 1.927,-2.568 2.994,-1.534 0.153,0.148 0.012,0.038 0.184,0.206 0.56,0.547 2.367,2.025 2.367,2.708 0,0.604 -2.805,3.116 -2.849,3.137 -0.815,0.384 -1.314,-0.468 -2.129,-1.283 -0.276,-0.275 -1.53,-1.418 -1.53,-1.724zm-4.165 -0.651c1.01,0.677 3.319,3.253 4.328,4.261l19.328 19.322c0.369,0.369 0.694,0.661 1.043,1.039l8.589 8.719c0.374,0.374 0.661,0.863 1.204,1.008 0.688,-1.434 1.245,-3.803 1.591,-5.306 1.781,-7.747 0.182,-15.348 -2.929,-22.5l-1.705 -4.672c-0.722,-2.163 -1.408,-4.395 -1.872,-6.586 -1.232,-5.816 -1.943,-12.441 -0.737,-18.498 0.54,-2.711 1.427,-5.374 2.83,-7.711 0.254,-0.424 0.696,-0.958 0.739,-1.472 -0.595,0.049 -0.444,0.208 -0.827,0.604l-2.048 1.987c-0.018,0.019 -0.046,0.045 -0.065,0.064 -0.019,0.019 -0.046,0.047 -0.064,0.066 -0.019,0.02 -0.045,0.048 -0.063,0.067l-2.064 2.101c-0.01,0.012 -0.202,0.177 -0.275,0.245l-2.258 2.296c-0.32,0.3 -0.204,0.147 -0.519,0.523l-1.732 1.782c-0.026,0.028 -0.096,0.111 -0.122,0.138l-1.079 1.133c-0.455,0.38 -0.693,0.536 -1.062,1.02l-2.399 2.416c-0.028,0.026 -0.111,0.096 -0.138,0.122l-1.566 1.558c-0.019,0.019 -0.046,0.045 -0.065,0.064l-4.936 4.955c-0.211,0.184 -0.073,0.055 -0.271,0.249 -0.138,0.134 -0.142,0.148 -0.259,0.262l-0.268 0.252c-0.223,0.218 -0.043,0.015 -0.251,0.27l-6.509 6.504c-0.282,0.237 -0.285,0.242 -0.529,0.512l-0.123 0.137c-0.962,1.029 -2.13,1.895 -2.917,3.069z"/>
  </g>
 </g>
</svg>
